<?xml version="1.0" encoding="UTF-8" standalone="no"?>
<svg
   xmlns:dc="http://purl.org/dc/elements/1.1/"
   xmlns:cc="http://creativecommons.org/ns#"
   xmlns:rdf="http://www.w3.org/1999/02/22-rdf-syntax-ns#"
   xmlns:svg="http://www.w3.org/2000/svg"
   xmlns="http://www.w3.org/2000/svg"
   version="1.1"
   id="svg4138"
   viewBox="0 0 300 300"
   height="300"
   width="300">
  <defs
     id="defs4140" />
  <metadata
     id="metadata4143">
    <rdf:RDF>
      <cc:Work
         rdf:about="">
        <dc:format>image/svg+xml</dc:format>
        <dc:type
           rdf:resource="http://purl.org/dc/dcmitype/StillImage" />
        <dc:title></dc:title>
      </cc:Work>
    </rdf:RDF>
  </metadata>
  <g
     transform="translate(0,-752.36216)"
     id="layer1">
    <g
       id="layer1-4"
       transform="matrix(0.34366103,0,0,0.34366103,33.421577,728.86419)">
      <g
         id="g4198"
         transform="translate(877.14286,454.28571)">
        <path
           id="path4153"
           d="m -658.35742,-340.99414 -9,2.14453 c -4.95,1.18002 -9.2403,1.76194 -9.5332,1.29297 -0.9635,-1.54259 -15.24846,-3.16941 -23.93946,-2.72656 -10.5249,0.53631 -16.12061,3.1365 -25.38281,11.80078 -8.4787,7.93139 -13.27607,16.13025 -23.69727,40.49804 -10.6493,24.90103 -12.47133,28.11167 -24.39453,42.95118 -14.0372,17.4705 -14.99883,20.14524 -12.05273,33.53906 1.8532,8.42306 1.84145,12.43067 -0.0605,21.63867 -3.6054,17.45505 -10.8174,37.64498 -21.4375,60.01172 -7.3533,15.48652 -10.21644,19.65385 -21.71094,31.5918 -13.5109,14.0321 -14.56951,17.15525 -12.16211,35.927731 0.9524,7.42603 0.86516,10.255387 -0.56054,18.066407 -3.2237,17.662309 -18.52987,58.965228 -28.72656,77.517578 -2.19311,3.99016 -7.09704,11.41516 -10.89844,16.5 -10.2919,13.76672 -10.34576,13.925815 -9.56836,28.466796 0.7396,13.83471 0.0355,18.154913 -5.9961,36.779298 -10.2669,31.70233 -25.91832,64.11024 -40.32812,83.5 -12.3145,16.57029 -13.53387,20.48046 -10.48047,33.64648 1.4305,6.16869 1.4273,8.11178 -0.0332,21.8125 -0.8818,8.27214 -2.82075,19.76602 -4.31055,25.54102 -2.3264,9.0181 -2.70559,12.47587 -2.68359,24.5 0.0226,12.1923 0.38488,15.29122 2.80468,24 3.5253,12.68722 12.61341,31.56067 20.41211,42.39062 22.4209,31.13568 59.60124,54.77823 92.74024,58.97071 10.3115,1.30452 478.98261,1.39806 489.35351,0.0976 34.87895,-4.37345 70.77553,-31.49564 84.125,-63.5625 2.54368,-6.1102 15.03036,-46.70043 59.49024,-193.39648 17.89896,-59.0579 36.36557,-119.876391 47.21679,-155.500001 6.86892,-22.549999 16.08387,-52.925 20.47852,-67.5 4.39466,-14.575 9.78417,-32.349999 11.97461,-39.499999 5.43118,-17.7284 6.86133,-25.11229 6.86133,-35.40625 0,-24.34009 -13.01429,-46.52106 -33.64649,-57.3457 -3.93043,-2.06209 -7.41793,-3.74805 -7.75,-3.74805 -0.33208,0 -0.61109,3.4875 -0.62109,7.75 -0.0246,10.98544 -1.10794,15.27483 -16.97656,67.25 -7.80835,25.575 -15.54005,50.999999 -17.18164,56.499999 -3.12407,10.46693 -28.91245,95.308228 -43.31446,142.5 -4.61585,15.125001 -9.95241,32.675001 -11.85937,39.000001 -1.90697,6.325 -5.79952,19.15 -8.65039,28.5 -2.85087,9.34999 -6.75245,22.175 -8.66992,28.5 -46.95427,154.88387 -47.28537,155.95397 -49.38868,160.0957 -4.18165,8.23427 -18.44805,18.07185 -30.47265,21.01172 -3.8283,0.93597 -60.96565,1.21761 -248.96875,1.22461 -268.9563,0.0103 -250.987,0.41195 -268.8125,-6.00977 -19.1997,-6.91673 -31.67551,-21.83097 -32.47461,-38.82226 -0.4254,-9.0436 1.5856,-13.00186 8.37891,-16.5 l 4.85351,-2.5 234.52734,-0.5332 c 233.6657,-0.53127 234.56045,-0.5418 243.52735,-2.63086 18.8931,-4.40158 29.03668,-10.50452 37.58398,-22.61328 5.732,-8.12036 10.23322,-16.61994 15.29492,-28.88672 7.1825,-17.40632 7.71724,-19.11319 54.46094,-173.835941 2.74167,-9.075001 7.91795,-26.175 11.50391,-38 7.24622,-23.89497 15.80345,-52.20005 27.81445,-92 4.39851,-14.575 11.81214,-39.099999 16.47461,-54.499999 4.66247,-15.4 12.02033,-39.7 16.34961,-54 4.32927,-14.3 11.56931,-38.15 16.08984,-53 10.38,-34.09843 11.8561,-40.01956 12.59571,-50.53516 0.84336,-11.99052 -1.44673,-22.87948 -7.35547,-34.96289 -3.88043,-7.93552 -6.05651,-10.90114 -13.22852,-18.03515 -9.49262,-9.44234 -17.86928,-14.26841 -30.58398,-17.6211 -6.69353,-1.765 -15.77811,-1.8457 -207.5,-1.8457 l -200.5,0 z"
           style="fill:#000000" />
        <g
           transform="matrix(2.456124,0.67021371,-0.77590393,2.1215616,1839.9698,1007.3434)"
           id="text4155"
           style="font-style:normal;font-weight:normal;font-size:143.84129333px;line-height:125%;font-family:sans-serif;letter-spacing:0px;word-spacing:0px;fill:#ff8000;fill-opacity:1;stroke:none;stroke-width:1px;stroke-linecap:butt;stroke-linejoin:miter;stroke-opacity:1">
          <path
             id="path4175"
             d="m -1076.4434,-234.69531 0,19.66601 28.5639,-8.42288 -0.01,-20.02024 z m 0,28.375 0,109.88281 c 0,4.96327 -0.6321,8.265477 -1.8964,9.904297 -1.2642,1.68564 -3.114,2.527344 -5.5489,2.527344 -1.0769,0 -2.7623,-0.232942 -5.0566,-0.701172 l -4.2852,20.789062 c 8.1941,1.63881 15.0531,2.458985 20.5782,2.458985 6.6958,0 11.8478,-1.194042 15.4531,-3.582032 3.6054,-2.38799 6.0639,-5.502286 7.375,-9.341796 1.3579,-3.839511 2.0351,-10.371504 2.0351,-19.595704 l 0,-87.841794 20.4279,79.596 24.6383,-8.20659 15.83425,-90.24989 2.47565,84.40532 27.21588,-8.48213 -11.74116,-115.39532 -39.77422,12.59251 -10.1001,74.51056 -17.0725,-66.20772 -40.5583,12.93729 z"
             style="font-style:normal;font-variant:normal;font-weight:900;font-stretch:normal;font-family:'Arial Black';-inkscape-font-specification:'Arial Black, Heavy';fill:#ff8000;fill-opacity:1" />
        </g>
      </g>
    </g>
  </g>
</svg>
